<svg xmlns="http://www.w3.org/2000/svg" width="1280" height="320" viewBox="0 0 1280 320" font-family="JetBrains Mono, Menlo, Consolas, monospace">
  <defs>
    <radialGradient id="haze" cx="0.12" cy="0.30" r="0.85">
      <stop offset="0%" stop-color="#5D3AA8" stop-opacity="0.32"></stop>
      <stop offset="60%" stop-color="#5D3AA8" stop-opacity="0"></stop>
    </radialGradient>
    <pattern id="scan" width="3" height="3" patternUnits="userSpaceOnUse">
      <rect width="3" height="1" fill="#BAADDC" opacity="0.055"></rect>
    </pattern>
    <pattern id="dither" width="3" height="3" patternUnits="userSpaceOnUse">
      <circle cx="1" cy="1" r="0.5" fill="#BAADDC" opacity="0.10"></circle>
    </pattern>
    <filter id="glow" x="-30%" y="-60%" width="160%" height="220%">
      <feGaussianBlur stdDeviation="9"></feGaussianBlur>
    </filter>
    <filter id="dot" x="-120%" y="-120%" width="340%" height="340%">
      <feGaussianBlur stdDeviation="4" result="b"></feGaussianBlur>
      <feMerge><feMergeNode in="b"></feMergeNode><feMergeNode in="b"></feMergeNode><feMergeNode in="SourceGraphic"></feMergeNode></feMerge>
    </filter>
  </defs>

  <rect width="1280" height="320" fill="#0B0524"></rect>
  <rect width="1280" height="320" fill="url(#haze)"></rect>
  <rect width="1280" height="320" fill="url(#scan)"></rect>
  <rect width="1280" height="320" fill="url(#dither)"></rect>
  <rect x="0.5" y="0.5" width="1279" height="319" fill="none" stroke="#4A3A7A"></rect>

  <g stroke="#BAADDC" stroke-width="2" fill="none">
    <path d="M10 26 V10 H26"></path>
    <path d="M1270 26 V10 H1254"></path>
    <path d="M10 294 V310 H26"></path>
    <path d="M1270 294 V310 H1254"></path>
  </g>

  <g>
    <rect x="34" y="31.5" width="9" height="9" fill="#D97757" filter="url(#dot)"></rect>
    <rect x="51" y="31.5" width="9" height="9" fill="#6B54A8"></rect>
    <rect x="68" y="31.5" width="9" height="9" fill="#3C2F66"></rect>
    <text x="95" y="41" font-size="14" letter-spacing="1.4" fill="#9282BD">//SESSION_01</text>
    <text x="232" y="41" font-size="14" letter-spacing="0.6" fill="#6B54A8">whatevertr@github:~/profile</text>
    <rect x="1171" y="24" width="75" height="24" fill="none" stroke="#D97757" stroke-opacity="0.55"></rect>
    <text x="1208.5" y="40" font-size="13" letter-spacing="1.6" fill="#D97757" text-anchor="middle">ONLINE</text>
  </g>
  <line x1="34" y1="55" x2="1246" y2="55" stroke="#BAADDC" stroke-opacity="0.28"></line>

  <text x="34" y="90" font-size="13" letter-spacing="2" fill="#7A66B8">//IDENTITY_</text>
  <g font-family="Chakra Petch, JetBrains Mono, Menlo, monospace" font-weight="700" font-size="54" letter-spacing="6">
    <text x="34" y="144" fill="#8C68D6" filter="url(#glow)">THAINÁ RAMOS</text>
    <text x="34" y="144" fill="#EDE7FA">THAINÁ RAMOS</text>
  </g>
  <text x="34" y="178" font-size="18" letter-spacing="0.4" fill="#BAADDC">process engineering · context · human–ai collaboration</text>
  <g font-size="14" letter-spacing="1.1">
    <text x="34" y="212" fill="#BAADDC">[OK]</text>
    <text x="82" y="212" fill="#9282BD">METHOD: CONSTELLATION</text>
    <text x="294" y="212" fill="#4A3A7A">·</text>
    <text x="310" y="212" fill="#9282BD">INVARIANTS: STABLE</text>
  </g>
  <g font-size="15">
    <text x="34" y="277" fill="#BAADDC">$</text>
    <text x="52" y="277" fill="#7A66B8">whoami --long   →   README below</text>
    <rect x="352" y="264" width="9" height="17" fill="#D97757"></rect>
  </g>

  <g font-size="13">
    <line x1="862" y1="76" x2="1246" y2="76" stroke="#BAADDC" stroke-opacity="0.40"></line>
    <text x="862" y="97" letter-spacing="1.4" fill="#7A66B8">//FUNCTION_</text>
    <text x="1246" y="97" letter-spacing="1" fill="#DCD3F0" text-anchor="end">PROCESS ENGINEER</text>
    <line x1="862" y1="107" x2="1246" y2="107" stroke="#BAADDC" stroke-opacity="0.18"></line>
    <text x="862" y="128" letter-spacing="1.4" fill="#7A66B8">//METHOD_</text>
    <text x="1246" y="128" letter-spacing="1" fill="#DCD3F0" text-anchor="end">CONSTELLATION · BLIND AUDIT</text>
    <line x1="862" y1="138" x2="1246" y2="138" stroke="#BAADDC" stroke-opacity="0.18"></line>
    <text x="862" y="159" letter-spacing="1.4" fill="#7A66B8">//FIELD_NOTES_</text>
    <text x="1246" y="159" letter-spacing="1" fill="#DCD3F0" text-anchor="end">DATED · VERSIONED · FLAGGED</text>
    <line x1="862" y1="169" x2="1246" y2="169" stroke="#BAADDC" stroke-opacity="0.40"></line>
  </g>

  <g transform="translate(946 206)">
    <g stroke="#8C68D6" stroke-width="1.6" opacity="0.85" fill="none">
      <line x1="14" y1="62" x2="94" y2="26"></line>
      <line x1="94" y1="26" x2="172" y2="70"></line>
      <line x1="94" y1="26" x2="116" y2="84"></line>
      <line x1="172" y1="70" x2="248" y2="38"></line>
    </g>
    <g fill="#BAADDC">
      <circle cx="14" cy="62" r="5"></circle>
      <circle cx="172" cy="70" r="5"></circle>
      <circle cx="116" cy="84" r="3.5"></circle>
      <circle cx="248" cy="38" r="4"></circle>
    </g>
    <circle cx="94" cy="26" r="7" fill="#D97757" filter="url(#dot)"></circle>
  </g>
</svg>