<svg width="1280" height="320" viewBox="0 0 1280 320" xmlns="http://www.w3.org/2000/svg">
  <title>whatevertr — banner NUD (dia)</title>
  <defs>
    <filter id="fibre"><feTurbulence type="fractalNoise" baseFrequency="0.9" numOctaves="2" stitchTiles="stitch" result="n"/>
      <feColorMatrix in="n" type="saturate" values="0"/></filter>
    <clipPath id="cardclip"><rect width="1280" height="320" rx="12"/></clipPath></defs>
  <rect width="1280" height="320" rx="12" fill="#E7DCD0"/><g clip-path="url(#cardclip)"><rect width="1280" height="320" filter="url(#fibre)" opacity="0.09"/></g><rect x="1.5" y="1.5" width="1277" height="317" rx="11" fill="none" stroke="#6B657A" stroke-width="1.2" opacity="0.75"/><g stroke="#642DA4" stroke-width="2" opacity="0.9" fill="none">
      <path d="M 18 34 v -16 h 16"/><path d="M 1262 34 v -16 h -16"/>
      <path d="M 18 286 v 16 h 16"/><path d="M 1262 286 v 16 h -16"/>
    </g><line x1="18" y1="52" x2="1262" y2="52" stroke="#8A8794" stroke-width="1" opacity="0.5"/><g transform="translate(38,33) scale(0.34) translate(-32,-32)">
    <path d="M24 11 L13 11 L13 53 L24 53" fill="none" stroke="#642DA4" stroke-width="5.5" stroke-linecap="square"/>
    <path d="M40 11 L51 11 L51 53 L40 53" fill="none" stroke="#642DA4" stroke-width="5.5" stroke-linecap="square"/>
    <circle cx="32" cy="32" r="7.5" fill="#993700"/>
  </g><text x="60" y="39" font-family="'IBM Plex Mono','Share Tech Mono',Consolas,Menlo,monospace" font-size="14" fill="#642DA4" opacity="0.9">//SESSION_01</text><text x="168" y="39" font-family="'IBM Plex Mono','Share Tech Mono',Consolas,Menlo,monospace" font-size="14" fill="#605875">whatevertr@github:~/profile</text><g><rect x="1176" y="24" width="82" height="21" rx="2" fill="none" stroke="#993700" stroke-width="1"/>
        <text x="1217" y="39" text-anchor="middle" font-family="'IBM Plex Mono','Share Tech Mono',Consolas,Menlo,monospace" font-size="12" fill="#993700" letter-spacing="1">ONLINE</text></g><text x="56" y="96" font-family="'IBM Plex Mono','Share Tech Mono',Consolas,Menlo,monospace" font-size="13" fill="#605875" letter-spacing="2">//IDENTITY_</text><text x="56" y="150" font-family="'Share Tech Mono','IBM Plex Mono',Consolas,Menlo,monospace" font-size="54" font-weight="650" letter-spacing="5" fill="#642DA4" opacity="0.28" transform="translate(2,1.6)" style="mix-blend-mode:multiply">THAINÁ RAMOS</text><text x="56" y="150" font-family="'Share Tech Mono','IBM Plex Mono',Consolas,Menlo,monospace" font-size="54" font-weight="650" letter-spacing="5" fill="#191128">THAINÁ RAMOS</text><text x="58" y="190" font-family="'IBM Plex Mono','Share Tech Mono',Consolas,Menlo,monospace" font-size="18" fill="#423B55">process engineering · context · human–ai collaboration</text><text x="58" y="230" font-family="'IBM Plex Mono','Share Tech Mono',Consolas,Menlo,monospace" font-size="15"><tspan fill="#642DA4">[OK]</tspan><tspan fill="#605875">  method: constellation · invariants: stable</tspan></text><text x="58" y="266" font-family="'IBM Plex Mono','Share Tech Mono',Consolas,Menlo,monospace" font-size="14" fill="#605875">$ whoami --long  →  README below</text><rect x="348" y="254" width="9" height="15" fill="#993700"/><g font-family="'IBM Plex Mono','Share Tech Mono',Consolas,Menlo,monospace" font-size="14" fill="#605875">
    <line x1="884" y1="92"  x2="1224" y2="92"  stroke="#ABA9B3" stroke-width="0.9" opacity="0.6"/>
    <text x="888" y="118">//FUNCTION_</text><text x="1224" y="118" text-anchor="end" fill="#2C233D">PROCESS ENGINEER</text>
    <line x1="884" y1="130" x2="1224" y2="130" stroke="#ABA9B3" stroke-width="0.8" opacity="0.4"/>
    <text x="888" y="156">//METHOD_</text><text x="1224" y="156" text-anchor="end" fill="#2C233D">CONSTELLATION · BLIND AUDIT</text>
    <line x1="884" y1="168" x2="1224" y2="168" stroke="#ABA9B3" stroke-width="0.8" opacity="0.4"/>
    <text x="888" y="194">//FIELD_NOTES_</text><text x="1224" y="194" text-anchor="end" fill="#2C233D">DATED · VERSIONED · FLAGGED</text>
    <line x1="884" y1="206" x2="1224" y2="206" stroke="#ABA9B3" stroke-width="0.9" opacity="0.6"/>
  </g><g stroke="#642DA4" stroke-width="1.8" fill="none" opacity="0.9">
      <line x1="946" y1="270" x2="1028" y2="240"/><line x1="1028" y1="240" x2="1108" y2="278"/>
      <line x1="1028" y1="240" x2="1052" y2="298"/><line x1="1108" y1="278" x2="1182" y2="250"/>
    </g><g fill="#191128">
      <circle cx="946" cy="270" r="5.5"/><circle cx="1108" cy="278" r="5.5"/>
      <circle cx="1052" cy="298" r="4.5"/><circle cx="1182" cy="250" r="5"/>
    </g><circle cx="1028" cy="240" r="8" fill="#993700"/>
</svg>